<mxfile host="app.diagrams.net" agent="Mozilla/5.0 (Macintosh; Intel Mac OS X 10_15_7) AppleWebKit/605.1.15 (KHTML, like Gecko) Version/18.2 Safari/605.1.15" version="26.0.3">
  <diagram name="Page-1" id="d3WzGiYlZAEuq6rOUJl5">
    <mxGraphModel dx="1305" dy="1627" grid="1" gridSize="10" guides="1" tooltips="1" connect="1" arrows="1" fold="1" page="1" pageScale="1" pageWidth="827" pageHeight="1169" math="0" shadow="0">
      <root>
        <mxCell id="0" />
        <mxCell id="1" parent="0" />
        <mxCell id="ERZ3kdBUKcWHJryLTD_q-3" value="&amp;lt;&amp;lt;stereotype&amp;gt;&amp;gt;&lt;div&gt;Node Name&lt;/div&gt;" style="verticalAlign=top;align=center;shape=cube;size=10;direction=south;fontStyle=0;html=1;boundedLbl=1;spacingLeft=5;whiteSpace=wrap;" vertex="1" parent="1">
          <mxGeometry x="70" y="-280" width="180" height="100" as="geometry" />
        </mxCell>
        <mxCell id="ERZ3kdBUKcWHJryLTD_q-11" value="&amp;lt;&amp;lt;stereotype&amp;gt;&amp;gt;&lt;div&gt;Artifact Name&lt;/div&gt;" style="html=1;outlineConnect=0;whiteSpace=wrap;shape=mxgraph.archimate3.application;appType=artifact;archiType=square;" vertex="1" parent="1">
          <mxGeometry x="270" y="-270" width="150" height="75" as="geometry" />
        </mxCell>
        <mxCell id="ERZ3kdBUKcWHJryLTD_q-16" value="" style="group" vertex="1" connectable="0" parent="1">
          <mxGeometry x="-160" y="-40" width="200" height="120" as="geometry" />
        </mxCell>
        <mxCell id="ERZ3kdBUKcWHJryLTD_q-13" value="&amp;lt;&amp;lt;Client&amp;gt;&amp;gt;&lt;div&gt;Workstation&lt;/div&gt;" style="verticalAlign=top;align=center;shape=cube;size=10;direction=south;fontStyle=0;html=1;boundedLbl=1;spacingLeft=5;whiteSpace=wrap;" vertex="1" parent="ERZ3kdBUKcWHJryLTD_q-16">
          <mxGeometry width="200" height="120" as="geometry" />
        </mxCell>
        <mxCell id="ERZ3kdBUKcWHJryLTD_q-15" value="&amp;lt;&amp;lt;Presentation Logic&amp;gt;&amp;gt;&lt;div&gt;Web Browser&lt;/div&gt;" style="html=1;outlineConnect=0;whiteSpace=wrap;shape=mxgraph.archimate3.application;appType=artifact;archiType=square;" vertex="1" parent="ERZ3kdBUKcWHJryLTD_q-16">
          <mxGeometry x="20" y="50" width="150" height="60" as="geometry" />
        </mxCell>
        <mxCell id="ERZ3kdBUKcWHJryLTD_q-21" value="" style="group" vertex="1" connectable="0" parent="1">
          <mxGeometry x="319" y="-120" width="270" height="470" as="geometry" />
        </mxCell>
        <mxCell id="ERZ3kdBUKcWHJryLTD_q-17" value="&amp;lt;&amp;lt;Server&amp;gt;&amp;gt;&lt;div&gt;Application Server&lt;/div&gt;" style="verticalAlign=top;align=center;shape=cube;size=10;direction=south;fontStyle=0;html=1;boundedLbl=1;spacingLeft=5;whiteSpace=wrap;" vertex="1" parent="ERZ3kdBUKcWHJryLTD_q-21">
          <mxGeometry width="270" height="470" as="geometry" />
        </mxCell>
        <mxCell id="ERZ3kdBUKcWHJryLTD_q-30" value="`" style="group" vertex="1" connectable="0" parent="ERZ3kdBUKcWHJryLTD_q-21">
          <mxGeometry x="61" y="70" width="160" height="340" as="geometry" />
        </mxCell>
        <mxCell id="ERZ3kdBUKcWHJryLTD_q-19" value="&amp;lt;&amp;lt;Application Server&amp;gt;&amp;gt;&lt;div&gt;Java&lt;/div&gt;" style="html=1;outlineConnect=0;whiteSpace=wrap;shape=mxgraph.archimate3.application;appType=artifact;archiType=square;" vertex="1" parent="ERZ3kdBUKcWHJryLTD_q-30">
          <mxGeometry y="42" width="160" height="60" as="geometry" />
        </mxCell>
        <mxCell id="ERZ3kdBUKcWHJryLTD_q-20" value="&amp;lt;&amp;lt;Database Access Login&amp;gt;&amp;gt;&lt;div&gt;Java Database&lt;/div&gt;&lt;div&gt;Connectivity&lt;/div&gt;" style="html=1;outlineConnect=0;whiteSpace=wrap;shape=mxgraph.archimate3.application;appType=artifact;archiType=square;" vertex="1" parent="ERZ3kdBUKcWHJryLTD_q-30">
          <mxGeometry y="128" width="160" height="80" as="geometry" />
        </mxCell>
        <mxCell id="ERZ3kdBUKcWHJryLTD_q-28" value="&amp;lt;&amp;lt;Notification Service&amp;gt;&amp;gt;&lt;div&gt;Firebase&lt;/div&gt;" style="html=1;outlineConnect=0;whiteSpace=wrap;shape=mxgraph.archimate3.application;appType=artifact;archiType=square;" vertex="1" parent="ERZ3kdBUKcWHJryLTD_q-30">
          <mxGeometry y="227" width="160" height="60" as="geometry" />
        </mxCell>
        <mxCell id="ERZ3kdBUKcWHJryLTD_q-33" style="rounded=0;orthogonalLoop=1;jettySize=auto;html=1;exitX=0.5;exitY=1;exitDx=0;exitDy=0;exitPerimeter=0;entryX=0.5;entryY=0;entryDx=0;entryDy=0;entryPerimeter=0;endArrow=none;endFill=0;" edge="1" parent="ERZ3kdBUKcWHJryLTD_q-30" source="ERZ3kdBUKcWHJryLTD_q-19" target="ERZ3kdBUKcWHJryLTD_q-20">
          <mxGeometry relative="1" as="geometry" />
        </mxCell>
        <mxCell id="ERZ3kdBUKcWHJryLTD_q-34" style="edgeStyle=orthogonalEdgeStyle;rounded=0;orthogonalLoop=1;jettySize=auto;html=1;exitX=0;exitY=0.75;exitDx=0;exitDy=0;exitPerimeter=0;entryX=0;entryY=0.5;entryDx=0;entryDy=0;entryPerimeter=0;endArrow=none;endFill=0;" edge="1" parent="ERZ3kdBUKcWHJryLTD_q-30" source="ERZ3kdBUKcWHJryLTD_q-19" target="ERZ3kdBUKcWHJryLTD_q-28">
          <mxGeometry relative="1" as="geometry">
            <Array as="points">
              <mxPoint x="-30" y="87" />
              <mxPoint x="-30" y="257" />
            </Array>
          </mxGeometry>
        </mxCell>
        <mxCell id="ERZ3kdBUKcWHJryLTD_q-53" value="API" style="text;html=1;align=center;verticalAlign=middle;resizable=0;points=[];autosize=1;strokeColor=none;fillColor=none;" vertex="1" parent="ERZ3kdBUKcWHJryLTD_q-30">
          <mxGeometry x="71" y="15" width="40" height="30" as="geometry" />
        </mxCell>
        <mxCell id="ERZ3kdBUKcWHJryLTD_q-18" value="&amp;lt;&amp;lt;Web Server&amp;gt;&amp;gt;&lt;div&gt;Apache&lt;/div&gt;" style="html=1;outlineConnect=0;whiteSpace=wrap;shape=mxgraph.archimate3.application;appType=artifact;archiType=square;" vertex="1" parent="ERZ3kdBUKcWHJryLTD_q-21">
          <mxGeometry x="61" y="50" width="160" height="40" as="geometry" />
        </mxCell>
        <mxCell id="ERZ3kdBUKcWHJryLTD_q-32" style="rounded=0;orthogonalLoop=1;jettySize=auto;html=1;exitX=0.5;exitY=1;exitDx=0;exitDy=0;exitPerimeter=0;entryX=0.5;entryY=0;entryDx=0;entryDy=0;entryPerimeter=0;endArrow=none;endFill=0;" edge="1" parent="ERZ3kdBUKcWHJryLTD_q-21" source="ERZ3kdBUKcWHJryLTD_q-18" target="ERZ3kdBUKcWHJryLTD_q-19">
          <mxGeometry relative="1" as="geometry" />
        </mxCell>
        <mxCell id="ERZ3kdBUKcWHJryLTD_q-29" value="&amp;lt;&amp;lt;AI Service&amp;gt;&amp;gt;&lt;div&gt;Web Scraper&lt;/div&gt;" style="html=1;outlineConnect=0;whiteSpace=wrap;shape=mxgraph.archimate3.application;appType=artifact;archiType=square;" vertex="1" parent="ERZ3kdBUKcWHJryLTD_q-21">
          <mxGeometry x="61" y="380" width="160" height="60" as="geometry" />
        </mxCell>
        <mxCell id="ERZ3kdBUKcWHJryLTD_q-37" style="edgeStyle=orthogonalEdgeStyle;rounded=0;orthogonalLoop=1;jettySize=auto;html=1;entryX=0;entryY=0.5;entryDx=0;entryDy=0;entryPerimeter=0;endArrow=none;endFill=0;exitX=0;exitY=0.5;exitDx=0;exitDy=0;exitPerimeter=0;" edge="1" parent="ERZ3kdBUKcWHJryLTD_q-21" source="ERZ3kdBUKcWHJryLTD_q-29" target="ERZ3kdBUKcWHJryLTD_q-19">
          <mxGeometry relative="1" as="geometry">
            <Array as="points">
              <mxPoint x="21" y="410" />
              <mxPoint x="21" y="140" />
              <mxPoint x="61" y="140" />
            </Array>
          </mxGeometry>
        </mxCell>
        <mxCell id="ERZ3kdBUKcWHJryLTD_q-55" value="Web Scraping Data" style="text;html=1;align=center;verticalAlign=middle;resizable=0;points=[];autosize=1;strokeColor=none;fillColor=none;" vertex="1" parent="ERZ3kdBUKcWHJryLTD_q-21">
          <mxGeometry x="9" y="353" width="130" height="30" as="geometry" />
        </mxCell>
        <mxCell id="ERZ3kdBUKcWHJryLTD_q-56" value="API" style="text;html=1;align=center;verticalAlign=middle;resizable=0;points=[];autosize=1;strokeColor=none;fillColor=none;" vertex="1" parent="ERZ3kdBUKcWHJryLTD_q-21">
          <mxGeometry x="21" y="270" width="40" height="30" as="geometry" />
        </mxCell>
        <mxCell id="ERZ3kdBUKcWHJryLTD_q-57" value="JDBC/SQL" style="text;html=1;align=center;verticalAlign=middle;resizable=0;points=[];autosize=1;strokeColor=none;fillColor=none;" vertex="1" parent="ERZ3kdBUKcWHJryLTD_q-21">
          <mxGeometry x="131" y="170" width="80" height="30" as="geometry" />
        </mxCell>
        <mxCell id="ERZ3kdBUKcWHJryLTD_q-22" value="" style="group" vertex="1" connectable="0" parent="1">
          <mxGeometry x="660" y="58" width="200" height="120" as="geometry" />
        </mxCell>
        <mxCell id="ERZ3kdBUKcWHJryLTD_q-23" value="&amp;lt;&amp;lt;Server&amp;gt;&amp;gt;&lt;div&gt;Databse Server&lt;/div&gt;" style="verticalAlign=top;align=center;shape=cube;size=10;direction=south;fontStyle=0;html=1;boundedLbl=1;spacingLeft=5;whiteSpace=wrap;" vertex="1" parent="ERZ3kdBUKcWHJryLTD_q-22">
          <mxGeometry width="200" height="120" as="geometry" />
        </mxCell>
        <mxCell id="ERZ3kdBUKcWHJryLTD_q-24" value="&amp;lt;&amp;lt;Data Storage&amp;gt;&amp;gt;&lt;div&gt;MySQL Database&lt;/div&gt;" style="html=1;outlineConnect=0;whiteSpace=wrap;shape=mxgraph.archimate3.application;appType=artifact;archiType=square;" vertex="1" parent="ERZ3kdBUKcWHJryLTD_q-22">
          <mxGeometry x="20" y="50" width="150" height="60" as="geometry" />
        </mxCell>
        <mxCell id="ERZ3kdBUKcWHJryLTD_q-25" value="" style="group" vertex="1" connectable="0" parent="1">
          <mxGeometry x="-160" y="110" width="200" height="120" as="geometry" />
        </mxCell>
        <mxCell id="ERZ3kdBUKcWHJryLTD_q-26" value="&amp;lt;&amp;lt;Mobile App&amp;gt;&amp;gt;&lt;div&gt;Android/IOS&lt;/div&gt;" style="verticalAlign=top;align=center;shape=cube;size=10;direction=south;fontStyle=0;html=1;boundedLbl=1;spacingLeft=5;whiteSpace=wrap;" vertex="1" parent="ERZ3kdBUKcWHJryLTD_q-25">
          <mxGeometry width="200" height="120" as="geometry" />
        </mxCell>
        <mxCell id="ERZ3kdBUKcWHJryLTD_q-27" value="&amp;lt;&amp;lt;Application&amp;gt;&amp;gt;&lt;div&gt;Helping Hands&lt;/div&gt;&lt;div&gt;Application&lt;/div&gt;" style="html=1;outlineConnect=0;whiteSpace=wrap;shape=mxgraph.archimate3.application;appType=artifact;archiType=square;" vertex="1" parent="ERZ3kdBUKcWHJryLTD_q-25">
          <mxGeometry x="20" y="50" width="150" height="60" as="geometry" />
        </mxCell>
        <mxCell id="ERZ3kdBUKcWHJryLTD_q-31" style="rounded=0;orthogonalLoop=1;jettySize=auto;html=1;entryX=0.5;entryY=1.001;entryDx=0;entryDy=0;entryPerimeter=0;endArrow=none;endFill=0;" edge="1" parent="1" source="ERZ3kdBUKcWHJryLTD_q-20" target="ERZ3kdBUKcWHJryLTD_q-23">
          <mxGeometry relative="1" as="geometry" />
        </mxCell>
        <mxCell id="ERZ3kdBUKcWHJryLTD_q-44" value="" style="group" vertex="1" connectable="0" parent="1">
          <mxGeometry x="175" y="53" width="75" height="118" as="geometry" />
        </mxCell>
        <mxCell id="ERZ3kdBUKcWHJryLTD_q-42" value="" style="verticalLabelPosition=bottom;sketch=0;aspect=fixed;html=1;verticalAlign=top;strokeColor=none;align=center;outlineConnect=0;shape=mxgraph.citrix.firewall;" vertex="1" parent="ERZ3kdBUKcWHJryLTD_q-44">
          <mxGeometry width="75" height="93" as="geometry" />
        </mxCell>
        <mxCell id="ERZ3kdBUKcWHJryLTD_q-43" value="Firewall" style="text;html=1;align=center;verticalAlign=middle;resizable=0;points=[];autosize=1;strokeColor=none;fillColor=none;" vertex="1" parent="ERZ3kdBUKcWHJryLTD_q-44">
          <mxGeometry x="7.5" y="88" width="60" height="30" as="geometry" />
        </mxCell>
        <mxCell id="ERZ3kdBUKcWHJryLTD_q-46" style="rounded=0;orthogonalLoop=1;jettySize=auto;html=1;endArrow=none;endFill=0;" edge="1" parent="1" source="ERZ3kdBUKcWHJryLTD_q-42">
          <mxGeometry relative="1" as="geometry">
            <mxPoint x="320" y="100" as="targetPoint" />
          </mxGeometry>
        </mxCell>
        <mxCell id="ERZ3kdBUKcWHJryLTD_q-47" style="edgeStyle=orthogonalEdgeStyle;rounded=0;orthogonalLoop=1;jettySize=auto;html=1;entryX=-0.023;entryY=0.178;entryDx=0;entryDy=0;entryPerimeter=0;endArrow=none;endFill=0;" edge="1" parent="1" source="ERZ3kdBUKcWHJryLTD_q-13" target="ERZ3kdBUKcWHJryLTD_q-42">
          <mxGeometry relative="1" as="geometry">
            <Array as="points">
              <mxPoint x="140" y="20" />
              <mxPoint x="140" y="70" />
            </Array>
          </mxGeometry>
        </mxCell>
        <mxCell id="ERZ3kdBUKcWHJryLTD_q-48" style="edgeStyle=orthogonalEdgeStyle;rounded=0;orthogonalLoop=1;jettySize=auto;html=1;endArrow=none;endFill=0;exitX=0.423;exitY=-0.001;exitDx=0;exitDy=0;exitPerimeter=0;" edge="1" parent="1" source="ERZ3kdBUKcWHJryLTD_q-26" target="ERZ3kdBUKcWHJryLTD_q-42">
          <mxGeometry relative="1" as="geometry">
            <Array as="points">
              <mxPoint x="140" y="161" />
              <mxPoint x="140" y="100" />
            </Array>
          </mxGeometry>
        </mxCell>
        <mxCell id="ERZ3kdBUKcWHJryLTD_q-50" value="TCP/IP" style="text;html=1;align=center;verticalAlign=middle;resizable=0;points=[];autosize=1;strokeColor=none;fillColor=none;" vertex="1" parent="1">
          <mxGeometry x="70" y="-4" width="60" height="30" as="geometry" />
        </mxCell>
        <mxCell id="ERZ3kdBUKcWHJryLTD_q-51" value="TCP/IP" style="text;html=1;align=center;verticalAlign=middle;resizable=0;points=[];autosize=1;strokeColor=none;fillColor=none;" vertex="1" parent="1">
          <mxGeometry x="70" y="155" width="60" height="30" as="geometry" />
        </mxCell>
        <mxCell id="ERZ3kdBUKcWHJryLTD_q-52" value="TCP/IP" style="text;html=1;align=center;verticalAlign=middle;resizable=0;points=[];autosize=1;strokeColor=none;fillColor=none;" vertex="1" parent="1">
          <mxGeometry x="259" y="77" width="60" height="30" as="geometry" />
        </mxCell>
        <mxCell id="ERZ3kdBUKcWHJryLTD_q-54" value="TCP/IP" style="text;html=1;align=center;verticalAlign=middle;resizable=0;points=[];autosize=1;strokeColor=none;fillColor=none;" vertex="1" parent="1">
          <mxGeometry x="589" y="97" width="60" height="30" as="geometry" />
        </mxCell>
      </root>
    </mxGraphModel>
  </diagram>
</mxfile>
